<svg width="10" height="16" fill="none" xmlns="http://www.w3.org/2000/svg"><path d="M8.4 0a1 1 0 0 1 1 1v1.2a1 1 0 0 1-1 1H7c-.552 0-.8.648-.8 1.2v2h1.4a1 1 0 0 1 1 1v1.2a1 1 0 0 1-1 1H6.2V15a1 1 0 0 1-1 1H4a1 1 0 0 1-1-1V9.6H1.6a1 1 0 0 1-1-1V7.4a1 1 0 0 1 1-1H3V3.2A3.2 3.2 0 0 1 6.2 0h2.2Z" fill="#fff"/><mask id="a" style="mask-type:alpha" maskUnits="userSpaceOnUse" x="0" y="0" width="10" height="16"><path d="M8.4 0a1 1 0 0 1 1 1v1.2a1 1 0 0 1-1 1H7c-.552 0-.8.648-.8 1.2v2h1.4a1 1 0 0 1 1 1v1.2a1 1 0 0 1-1 1H6.2V15a1 1 0 0 1-1 1H4a1 1 0 0 1-1-1V9.6H1.6a1 1 0 0 1-1-1V7.4a1 1 0 0 1 1-1H3V3.2A3.2 3.2 0 0 1 6.2 0h2.2Z" fill="#fff"/></mask></svg>