<svg width="16" height="17" fill="none" xmlns="http://www.w3.org/2000/svg"><path fill-rule="evenodd" clip-rule="evenodd" d="M14.71 1.995C13.87 1.124 12.677.672 11.323.672H4.677C1.871.672 0 2.543 0 5.35v6.613c0 1.387.452 2.58 1.355 3.451.87.839 2.032 1.258 3.355 1.258h6.58c1.387 0 2.549-.451 3.387-1.258.871-.838 1.323-2.032 1.323-3.42V5.35c0-1.355-.452-2.516-1.29-3.355ZM12.29 5.35a.935.935 0 1 0 0-1.871.935.935 0 0 0 0 1.87ZM8 4.51a4.137 4.137 0 0 0-4.129 4.13A4.116 4.116 0 0 0 8 12.768c2.29 0 4.129-1.87 4.129-4.129 0-2.258-1.87-4.129-4.129-4.129Zm0 6.774A2.657 2.657 0 0 1 5.355 8.64 2.657 2.657 0 0 1 8 5.995a2.657 2.657 0 0 1 2.645 2.645A2.657 2.657 0 0 1 8 11.285Zm5.645 3.065c.58-.549.936-1.355.936-2.355V5.35c0-.936-.323-1.742-.871-2.323-.581-.58-1.387-.87-2.355-.87H4.71c-.968 0-1.807.29-2.355.838-.58.58-.871 1.387-.871 2.355v6.613c0 1 .29 1.806.87 2.387.581.548 1.388.838 2.356.838h6.58c.968 0 1.775-.29 2.355-.838Z" fill="#fff"/><mask id="a" style="mask-type:alpha" maskUnits="userSpaceOnUse" x="0" y="0" width="16" height="17"><path fill-rule="evenodd" clip-rule="evenodd" d="M14.71 1.995C13.87 1.124 12.677.672 11.323.672H4.677C1.871.672 0 2.543 0 5.35v6.613c0 1.387.452 2.58 1.355 3.451.87.839 2.032 1.258 3.355 1.258h6.58c1.387 0 2.549-.451 3.387-1.258.871-.838 1.323-2.032 1.323-3.42V5.35c0-1.355-.452-2.516-1.29-3.355ZM12.29 5.35a.935.935 0 1 0 0-1.871.935.935 0 0 0 0 1.87ZM8 4.51a4.137 4.137 0 0 0-4.129 4.13A4.116 4.116 0 0 0 8 12.768c2.29 0 4.129-1.87 4.129-4.129 0-2.258-1.87-4.129-4.129-4.129Zm0 6.774A2.657 2.657 0 0 1 5.355 8.64 2.657 2.657 0 0 1 8 5.995a2.657 2.657 0 0 1 2.645 2.645A2.657 2.657 0 0 1 8 11.285Zm5.645 3.065c.58-.549.936-1.355.936-2.355V5.35c0-.936-.323-1.742-.871-2.323-.581-.58-1.387-.87-2.355-.87H4.71c-.968 0-1.807.29-2.355.838-.58.58-.871 1.387-.871 2.355v6.613c0 1 .29 1.806.87 2.387.581.548 1.388.838 2.356.838h6.58c.968 0 1.775-.29 2.355-.838Z" fill="#fff"/></mask></svg>