<svg width="76" height="76" fill="none" xmlns="http://www.w3.org/2000/svg"><rect width="76" height="76" rx="38" fill="#FA706C"/><path d="M34.658 28.67h2.57c1.419 0 3.158.99 3.884 2.208l3.18 5.337h5.783a1.285 1.285 0 0 1 0 2.57H44.17l-3.18 5.337c-.726 1.219-2.465 2.207-3.885 2.207h-2.569l4.496-7.544h-8.98l-1.842 3.151h-2.57l2.595-4.436v-.042l-2.57-4.394h2.57l1.843 3.151h9.076l-4.496-7.544Z" fill="#2D2D2D"/><mask id="a" style="mask-type:alpha" maskUnits="userSpaceOnUse" x="25" y="28" width="27" height="19"><path d="M34.658 28.67h2.57c1.419 0 3.158.99 3.884 2.208l3.18 5.337h5.783a1.285 1.285 0 0 1 0 2.57H44.17l-3.18 5.337c-.726 1.219-2.465 2.207-3.885 2.207h-2.569l4.496-7.544h-8.98l-1.842 3.151h-2.57l2.595-4.436v-.042l-2.57-4.394h2.57l1.843 3.151h9.076l-4.496-7.544Z" fill="#fff"/></mask></svg>