<svg width="25" height="25" fill="none" xmlns="http://www.w3.org/2000/svg"><path d="M5.508 13.615h11.17l-4.88 4.88c-.39.39-.39 1.03 0 1.42.39.39 1.02.39 1.41 0l6.59-6.59a.996.996 0 0 0 0-1.41l-6.58-6.6a.996.996 0 1 0-1.41 1.41l4.87 4.89H5.508c-.55 0-1 .45-1 1s.45 1 1 1Z" fill="#37474F"/><mask id="a" style="mask-type:alpha" maskUnits="userSpaceOnUse" x="4" y="5" width="17" height="16"><path d="M5.508 13.615h11.17l-4.88 4.88c-.39.39-.39 1.03 0 1.42.39.39 1.02.39 1.41 0l6.59-6.59a.996.996 0 0 0 0-1.41l-6.58-6.6a.996.996 0 1 0-1.41 1.41l4.87 4.89H5.508c-.55 0-1 .45-1 1s.45 1 1 1Z" fill="#fff"/></mask></svg>