<svg width="16" height="14" fill="none" xmlns="http://www.w3.org/2000/svg"><path fill-rule="evenodd" clip-rule="evenodd" d="M9.211.115c1.296-.255 2.46-.07 3.441.403.054.026.106.052.155.078l.961-.389c.99-.4 2.036.437 1.862 1.49.471.518.546 1.383-.091 1.952l-.986.882c.013 1.084-.136 2.056-.593 3.14-.813 1.93-1.98 3.382-3.408 4.393a8.808 8.808 0 0 1-3.177 1.41c-.703.159-1.3.208-1.739.197a8.863 8.863 0 0 1-3.676-.75c-.655-.287-1.136-.584-1.426-.807-1.046-.808-.45-2.482.871-2.449.254.007.491.003.713-.01-.42-.499-.644-1-.734-1.413a1.37 1.37 0 0 1-.027-.422 3.94 3.94 0 0 1-.244-.328 3.742 3.742 0 0 1-.642-2.404l.004-.035c.024-.204.09-.389.186-.548-.283-.902-.219-1.809.048-2.663.086-.278.178-.495.252-.64a1.367 1.367 0 0 1 2.257-.27C4.215 2.098 5.2 2.792 6.14 3.127c.116.042.228.077.335.106.3-1.888 1.542-3.017 2.736-3.118ZM7.81 4.833s-2.472.574-5.231-2.651c0 0-1.075 2.114.788 3.404 0 0-.609.107-1.11-.25 0 0-.216 1.826 2.006 2.543H3.08s.323 1.469 2.401 1.791c0 0-.86 1.147-3.655 1.075 0 0 1.577 1.218 3.978 1.182 0 0 4.442.215 6.556-4.8.52-1.235.466-2.401.43-2.975l1.362-1.218-1.362.251s.932-.68 1.04-1.325l-1.505.609s-1.13-1.022-3.046-.61c0 0-1.756.359-1.47 2.974Z" fill="#fff"/><mask id="a" style="mask-type:alpha" maskUnits="userSpaceOnUse" x="0" y="0" width="16" height="14"><path fill-rule="evenodd" clip-rule="evenodd" d="M9.211.115c1.296-.255 2.46-.07 3.441.403.054.026.106.052.155.078l.961-.389c.99-.4 2.036.437 1.862 1.49.471.518.546 1.383-.091 1.952l-.986.882c.013 1.084-.136 2.056-.593 3.14-.813 1.93-1.98 3.382-3.408 4.393a8.808 8.808 0 0 1-3.177 1.41c-.703.159-1.3.208-1.739.197a8.863 8.863 0 0 1-3.676-.75c-.655-.287-1.136-.584-1.426-.807-1.046-.808-.45-2.482.871-2.449.254.007.491.003.713-.01-.42-.499-.644-1-.734-1.413a1.37 1.37 0 0 1-.027-.422 3.94 3.94 0 0 1-.244-.328 3.742 3.742 0 0 1-.642-2.404l.004-.035c.024-.204.09-.389.186-.548-.283-.902-.219-1.809.048-2.663.086-.278.178-.495.252-.64a1.367 1.367 0 0 1 2.257-.27C4.215 2.098 5.2 2.792 6.14 3.127c.116.042.228.077.335.106.3-1.888 1.542-3.017 2.736-3.118ZM7.81 4.833s-2.472.574-5.231-2.651c0 0-1.075 2.114.788 3.404 0 0-.609.107-1.11-.25 0 0-.216 1.826 2.006 2.543H3.08s.323 1.469 2.401 1.791c0 0-.86 1.147-3.655 1.075 0 0 1.577 1.218 3.978 1.182 0 0 4.442.215 6.556-4.8.52-1.235.466-2.401.43-2.975l1.362-1.218-1.362.251s.932-.68 1.04-1.325l-1.505.609s-1.13-1.022-3.046-.61c0 0-1.756.359-1.47 2.974Z" fill="#fff"/></mask></svg>